<svg width="22" height="21" viewBox="0 0 22 21" fill="none" xmlns="http://www.w3.org/2000/svg">
<path d="M4.14031 14.5505C3.17865 12.9281 2.84227 11.0104 3.19433 9.15746C3.54639 7.30456 4.56266 5.64388 6.05237 4.48718C7.54208 3.33048 9.40277 2.75731 11.2851 2.87528C13.1675 2.99324 14.9421 3.79423 16.2757 5.12787C17.6093 6.46151 18.4103 8.23608 18.5283 10.1184C18.6463 12.0008 18.0731 13.8615 16.9164 15.3512C15.7597 16.8409 14.099 17.8572 12.2461 18.2092C10.3932 18.5613 8.47552 18.2249 6.85305 17.2633V17.2633L4.17261 18.0222C4.06279 18.0543 3.94635 18.0563 3.8355 18.0279C3.72465 17.9996 3.62346 17.9419 3.54256 17.861C3.46165 17.7801 3.404 17.6789 3.37564 17.5681C3.34729 17.4572 3.34927 17.3408 3.38139 17.231L4.14031 14.5505Z" stroke="#797596" stroke-width="1.29178" stroke-linecap="round" stroke-linejoin="round"/>
</svg>
