<svg width="93" height="24" viewBox="0 0 93 24" fill="none" xmlns="http://www.w3.org/2000/svg">
<path d="M92.9999 14.0246C92.9999 16.9945 92.9999 19.9641 92.9995 22.9341C92.9995 23.3735 92.9259 23.4484 92.4798 23.4488C90.7955 23.4502 89.1112 23.4499 87.4268 23.4488C86.9702 23.4484 86.8969 23.3616 86.8796 22.9125C86.8717 22.708 86.9932 22.4533 86.7192 22.317C86.461 22.1889 86.3252 22.4168 86.1614 22.527C84.5469 23.613 82.7459 24.0156 80.8155 23.9966C76.6644 23.9556 73.0025 21.1592 71.9496 16.7782C71.2533 13.8804 71.5374 11.0695 73.1018 8.47493C74.6272 5.94552 76.9022 4.4436 79.8731 4.08981C82.1843 3.81423 84.3699 4.2384 86.3037 5.60403C86.4418 5.7016 86.5788 5.78204 86.7445 5.69676C86.906 5.61334 86.8856 5.45246 86.8845 5.30424C86.8837 5.19847 86.8845 5.09271 86.8845 4.98732C86.8837 4.71732 87.0117 4.57618 87.2947 4.57655C89.0651 4.57804 90.8351 4.57543 92.6055 4.57916C92.9244 4.5799 92.9995 4.67784 92.9995 5.05211C93.0003 7.88466 92.9999 10.7168 92.9999 13.5494C92.9999 13.7073 92.9999 13.8659 92.9999 14.0246ZM82.1673 18.8782C82.8663 18.892 83.6653 18.7084 84.3019 18.3877C87.4457 16.8046 87.8133 12.1424 84.9594 10.0495C82.8591 8.50919 79.8795 8.96762 78.4696 11.0613C77.7415 12.1424 77.5487 13.3464 77.6517 14.6268C77.8499 17.0984 79.6716 18.8286 82.1673 18.8782Z" fill="white"/>
<path d="M9.46466 23.9921C7.49877 23.9668 4.90904 23.0596 2.81106 20.9871C1.17163 19.3671 0.280585 17.3859 0.0586732 15.1127C-0.185506 12.6098 0.319458 10.2815 1.81812 8.21908C3.46472 5.95372 5.73668 4.65885 8.50644 4.18775C10.9248 3.77661 13.2421 4.08497 15.4204 5.21262C17.4271 6.25165 18.8771 7.81092 19.7549 9.8763C19.9277 10.283 19.8406 10.426 19.3847 10.4763C17.6392 10.6684 15.8929 10.8542 14.1478 11.0494C13.9391 11.0729 13.8052 11.0047 13.6855 10.8427C12.8518 9.71319 11.6913 9.27561 10.3104 9.3013C7.72974 9.34897 6.09446 11.2133 5.91595 13.4701C5.79782 14.9653 6.11333 16.3205 7.17685 17.4459C8.77741 19.1392 12.2582 19.2793 13.7636 17.161C13.8821 16.9942 14.0282 16.9521 14.2335 16.9752C15.9043 17.1621 17.5758 17.3383 19.2473 17.5181C19.3216 17.5263 19.3967 17.5342 19.47 17.5487C19.8187 17.6165 19.8998 17.7569 19.77 18.0849C19.1975 19.5306 18.3042 20.7518 17.0886 21.7357C15.2336 23.238 12.9469 24.007 9.46466 23.9921Z" fill="white"/>
<path d="M60.5407 13.4391C60.5407 12.2553 60.5407 11.0714 60.5407 9.8871C60.5407 9.39664 60.5169 9.37392 60.0044 9.37355C59.1994 9.37318 58.3948 9.37467 57.5898 9.37281C57.1611 9.37169 57.0679 9.27672 57.0675 8.84734C57.0667 7.64222 57.0664 6.4371 57.0679 5.23199C57.0682 4.82904 57.1505 4.74376 57.5532 4.74227C58.4118 4.73929 59.2704 4.73557 60.1286 4.74413C60.426 4.74711 60.5653 4.64582 60.6158 4.33672C60.8325 3.0061 61.0808 1.68032 61.305 0.350822C61.3495 0.087529 61.4767 -0.000731946 61.736 0.000385281C63.2384 0.00671624 64.7408 0.00783346 66.2429 1.28718e-05C66.552 -0.00147676 66.6592 0.12626 66.6576 0.419346C66.6501 1.69857 66.6539 2.97742 66.6546 4.25665C66.655 4.66183 66.7312 4.73966 67.1403 4.74041C68.0416 4.74227 68.9432 4.73892 69.8444 4.7419C70.2656 4.74339 70.3245 4.80558 70.3245 5.2264C70.3252 6.45275 70.3252 7.67909 70.3245 8.90506C70.3241 9.273 70.2279 9.37094 69.8497 9.37206C68.9485 9.37504 68.0469 9.37243 67.1456 9.37355C66.712 9.3743 66.655 9.42867 66.655 9.84204C66.6543 11.8612 66.6546 13.8801 66.655 15.8993C66.655 16.2277 66.6916 16.5521 66.7694 16.8713C67.0377 17.974 67.7664 18.5601 68.9122 18.5959C69.4278 18.6123 69.4278 18.6123 69.4278 19.1199C69.4278 20.5894 69.4285 22.0586 69.4274 23.5281C69.427 23.9433 69.3783 23.9902 68.97 23.9962C67.6057 24.0163 66.2489 23.9705 64.9435 23.5158C62.6832 22.7285 61.3472 21.1368 60.8026 18.8689C60.6045 18.0444 60.5343 17.2042 60.54 16.3566C60.5456 15.3842 60.5407 14.4115 60.5407 13.4391Z" fill="white"/>
<path d="M42.1858 14.5612C42.1858 11.6013 42.1858 8.64177 42.1858 5.68186C42.1858 5.20294 42.2469 5.14447 42.7439 5.14447C44.4287 5.14447 46.1134 5.1441 47.7977 5.14447C48.2234 5.14447 48.2997 5.22007 48.3001 5.64052C48.3008 6.29596 48.3042 6.9514 48.2978 7.60647C48.2959 7.80012 48.3163 7.97404 48.5318 8.03809C48.7254 8.09582 48.8194 7.95132 48.9182 7.82433C50.0184 6.41364 51.4053 5.43234 53.195 5.05472C53.7199 4.94412 54.2498 4.88453 54.7883 4.88416C55.0748 4.88379 55.1952 4.99551 55.1944 5.28003C55.1892 7.06648 55.1873 8.85292 55.1963 10.6394C55.1978 10.9436 55.0646 11.0524 54.7767 11.065C53.9728 11.1008 53.178 11.201 52.4092 11.4482C50.2822 12.1331 49.0586 13.6119 48.559 15.719C48.3729 16.503 48.2997 17.3007 48.3004 18.1054C48.3023 19.9023 48.3012 21.6995 48.3008 23.4964C48.3008 23.9437 48.2518 23.9943 47.8064 23.9947C46.1002 23.9958 44.3943 23.9955 42.6881 23.9947C42.2394 23.9943 42.1865 23.9418 42.1865 23.5028C42.1858 20.5231 42.1858 17.5423 42.1858 14.5612Z" fill="white"/>
<path d="M40.1908 11.4326C40.1908 9.84688 40.1912 8.26116 40.1905 6.67545C40.1901 6.14365 39.9727 5.96079 39.4526 6.0431C37.8981 6.28889 36.3436 6.53281 34.7891 6.77711C34.1762 6.87357 34.1207 6.93688 34.1211 7.55322C34.1226 10.2807 34.1286 13.0083 34.1237 15.7358C34.1211 17.1558 33.4142 18.2075 32.1642 18.6901C31.5815 18.915 30.9743 18.9497 30.3595 18.9065C29.0209 18.8119 27.9468 17.9751 27.5913 16.7502C27.4875 16.3931 27.4463 16.0259 27.4467 15.6542C27.4494 12.9267 27.4513 10.1992 27.4524 7.47166C27.4528 6.97114 27.3494 6.8624 26.8587 6.78791C25.3019 6.55143 23.7455 6.31309 22.1903 6.06879C21.5868 5.97383 21.3943 6.12242 21.3947 6.71827C21.3958 9.54076 21.3966 12.3636 21.3996 15.1861C21.4 15.6509 21.3966 16.1145 21.4411 16.5797C21.7246 19.5362 23.2557 21.6444 25.9299 22.9561C27.7539 23.8506 29.7126 24.0882 31.7212 23.9582C33.495 23.8435 35.1642 23.3665 36.6614 22.3963C38.2072 21.3945 39.2703 20.0256 39.8195 18.2767C40.0818 17.4414 40.1859 16.5853 40.1863 15.7146C40.1874 14.2875 40.1867 12.86 40.1867 11.433C40.1882 11.4326 40.1893 11.4326 40.1908 11.4326Z" fill="white"/>
<path d="M24.2724 5.27333C25.5869 5.30088 26.9195 4.31847 26.9648 2.66646C27.004 1.22785 25.776 0.0216126 24.3037 0.0134196C22.8458 0.0052266 21.6423 1.17757 21.6332 2.6147C21.6238 4.09279 22.7866 5.26439 24.2724 5.27333Z" fill="white"/>
<path d="M35.2276 2.3406C35.4827 2.59943 35.4839 2.69402 35.2348 2.94689C35.0929 3.09064 34.9483 3.23215 34.803 3.37255C34.6151 3.55391 34.6053 3.73304 34.7966 3.91999C35.1925 4.30655 35.5858 4.69535 35.9798 5.08377C36.1598 5.26104 36.3357 5.24912 36.5104 5.07595C36.6693 4.91879 36.8297 4.7635 36.9882 4.60597C37.0656 4.52888 37.1509 4.46929 37.2652 4.46222C37.3777 4.47712 37.4618 4.53931 37.5388 4.61565C37.6894 4.76573 37.8438 4.91246 37.9925 5.06478C38.1759 5.25284 38.3563 5.26215 38.5465 5.07409C38.9326 4.69274 39.3202 4.31288 39.7093 3.93489C39.9093 3.74049 39.9082 3.55466 39.704 3.36361C39.5485 3.21837 39.396 3.06941 39.2488 2.91598C39.0352 2.6929 39.056 2.49813 39.2911 2.30634C39.4466 2.17972 39.5915 2.03932 39.7357 1.90004C39.9029 1.73805 39.9063 1.56748 39.7398 1.40213C39.3394 1.00514 38.9375 0.609647 38.5352 0.214521C38.357 0.0394883 38.1789 0.0484261 38.0027 0.219362C37.8423 0.375029 37.677 0.525482 37.5226 0.686363C37.3324 0.884485 37.1569 0.865119 36.9746 0.678542C36.8187 0.518779 36.6583 0.363112 36.4972 0.20819C36.3296 0.046564 36.1549 0.0458192 35.9892 0.207072C35.5854 0.600709 35.185 0.997697 34.7838 1.39394C34.6045 1.57121 34.617 1.744 34.7959 1.91569C34.9415 2.05497 35.0857 2.19648 35.2276 2.3406Z" fill="white"/>
</svg>
