<svg width="108" height="28" viewBox="0 0 108 28" fill="none" xmlns="http://www.w3.org/2000/svg">
<g id="Logo">
<path d="M108 16.362C108 19.827 108 23.2915 107.999 26.7564C107.999 27.2691 107.914 27.3564 107.396 27.3569C105.44 27.3586 103.484 27.3582 101.528 27.3569C100.998 27.3564 100.913 27.2552 100.892 26.7312C100.883 26.4927 101.024 26.1955 100.706 26.0365C100.406 25.887 100.249 26.1529 100.058 26.2815C98.1834 27.5485 96.092 28.0182 93.8502 27.996C89.0297 27.9482 84.7771 24.6857 83.5543 19.5745C82.7457 16.1939 83.0757 12.9144 84.8924 9.88741C86.6639 6.93645 89.3058 5.1842 92.7559 4.77144C95.4398 4.44993 97.9779 4.9448 100.224 6.53803C100.384 6.65186 100.543 6.74571 100.736 6.64621C100.923 6.54889 100.899 6.3612 100.898 6.18828C100.897 6.06488 100.898 5.94149 100.898 5.81854C100.897 5.50354 101.046 5.33887 101.375 5.33931C103.43 5.34104 105.486 5.338 107.542 5.34235C107.912 5.34322 107.999 5.45748 107.999 5.89413C108 9.19877 108 12.503 108 15.8076C108 15.9918 108 16.1769 108 16.362ZM95.4201 22.0245C96.2318 22.0406 97.1596 21.8264 97.899 21.4523C101.55 19.6054 101.977 14.1661 98.6625 11.7244C96.2235 9.92739 92.7633 10.4622 91.1259 12.9049C90.2805 14.1661 90.0565 15.5708 90.1762 17.0645C90.4063 19.9482 92.5218 21.9668 95.4201 22.0245Z" fill="#010202"/>
<path d="M10.9912 27.9908C8.70825 27.9612 5.70082 26.9029 3.26446 24.485C1.3606 22.595 0.325841 20.2836 0.0681366 17.6315C-0.215426 14.7114 0.370983 11.9951 2.11137 9.58893C4.02355 6.946 6.66195 5.43533 9.87844 4.88571C12.6869 4.40605 15.3779 4.7658 17.9076 6.08139C20.2379 7.29359 21.9217 9.11274 22.9412 11.5224C23.1419 11.9968 23.0407 12.1636 22.5112 12.2223C20.4842 12.4465 18.4563 12.6633 16.4297 12.891C16.1874 12.9183 16.0318 12.8388 15.8929 12.6498C14.9247 11.3321 13.577 10.8215 11.9734 10.8515C8.97647 10.9071 7.07744 13.0821 6.87013 15.7151C6.73296 17.4595 7.09935 19.0406 8.3344 20.3535C10.1931 22.3291 14.2353 22.4925 15.9836 20.0212C16.1212 19.8265 16.2908 19.7774 16.5292 19.8044C18.4695 20.0225 20.4106 20.228 22.3517 20.4378C22.438 20.4474 22.5252 20.4565 22.6103 20.4735C23.0152 20.5525 23.1095 20.7163 22.9587 21.0991C22.2938 22.7857 21.2564 24.2104 19.8448 25.3583C17.6907 27.111 15.0352 28.0082 10.9912 27.9908Z" fill="#010202"/>
<path d="M70.3054 15.679C70.3054 14.2978 70.3054 12.9166 70.3054 11.535C70.3054 10.9627 70.2777 10.9362 69.6826 10.9358C68.7477 10.9354 67.8133 10.9371 66.8785 10.9349C66.3806 10.9336 66.2724 10.8228 66.2719 10.3219C66.271 8.91592 66.2706 7.50996 66.2724 6.10399C66.2728 5.63388 66.3683 5.53439 66.836 5.53265C67.8331 5.52917 68.8301 5.52483 69.8268 5.53482C70.1721 5.5383 70.3338 5.42012 70.3926 5.0595C70.6441 3.50712 70.9325 1.96038 71.1928 0.409293C71.2446 0.102117 71.3923 -0.000853938 71.6934 0.000449494C73.4381 0.00783561 75.1829 0.00913904 76.9272 1.50171e-05C77.2862 -0.00172289 77.4106 0.147303 77.4089 0.489236C77.4001 1.98167 77.4045 3.47366 77.4054 4.96609C77.4058 5.4388 77.4943 5.52961 77.9694 5.53048C79.016 5.53265 80.0631 5.52874 81.1097 5.53221C81.5988 5.53395 81.6671 5.60651 81.6671 6.09747C81.668 7.5282 81.668 8.95894 81.6671 10.3892C81.6667 10.8185 81.5549 10.9328 81.1158 10.9341C80.0692 10.9375 79.0222 10.9345 77.9756 10.9358C77.472 10.9367 77.4058 11.0001 77.4058 11.4824C77.4049 13.8381 77.4054 16.1934 77.4058 18.5492C77.4058 18.9324 77.4483 19.3108 77.5386 19.6831C77.8502 20.9696 78.6965 21.6535 80.0271 21.6952C80.6258 21.7143 80.6258 21.7143 80.6258 22.3065C80.6258 24.021 80.6267 25.735 80.6254 27.4494C80.6249 27.9339 80.5684 27.9886 80.0942 27.9956C78.5098 28.019 76.9342 27.9656 75.4182 27.4351C72.7934 26.5166 71.2419 24.6596 70.6095 22.0137C70.3794 21.0517 70.2979 20.0716 70.3045 19.0827C70.3111 17.9483 70.3054 16.8134 70.3054 15.679Z" fill="#010202"/>
<path d="M48.9899 16.9881C48.9899 13.5349 48.9899 10.0821 48.9899 6.62884C48.9899 6.0701 49.0609 6.00189 49.6381 6.00189C51.5946 6.00189 53.551 6.00145 55.507 6.00189C56.0014 6.00189 56.09 6.09008 56.0904 6.58061C56.0913 7.34529 56.0952 8.10997 56.0878 8.87421C56.0856 9.10014 56.1092 9.30304 56.3595 9.37777C56.5843 9.44512 56.6935 9.27654 56.8083 9.12838C58.0858 7.48258 59.6965 6.33774 61.7748 5.89718C62.3844 5.76814 62.9998 5.69862 63.6252 5.69819C63.9578 5.69775 64.0976 5.82809 64.0968 6.16003C64.0906 8.24422 64.0884 10.3284 64.099 12.4126C64.1007 12.7676 63.946 12.8944 63.6116 12.9092C62.6781 12.9509 61.7551 13.0678 60.8623 13.3563C58.3922 14.1553 56.9713 15.8806 56.391 18.3389C56.175 19.2534 56.09 20.1841 56.0908 21.123C56.093 23.2194 56.0917 25.3161 56.0913 27.4125C56.0913 27.9343 56.0343 27.9934 55.5171 27.9938C53.5357 27.9951 51.5547 27.9947 49.5733 27.9938C49.0522 27.9934 48.9908 27.9321 48.9908 27.4199C48.9899 23.9436 48.9899 20.4661 48.9899 16.9881Z" fill="#010202"/>
<path d="M46.6732 13.338C46.6732 11.488 46.6737 9.63803 46.6728 7.78802C46.6723 7.16759 46.4199 6.95426 45.816 7.05028C44.0107 7.33703 42.2055 7.62162 40.4002 7.90663C39.6885 8.01916 39.624 8.09302 39.6245 8.81208C39.6262 11.9942 39.6332 15.1763 39.6275 18.3584C39.6245 20.0151 38.8036 21.242 37.352 21.8051C36.6753 22.0676 35.9702 22.108 35.2562 22.0576C33.7017 21.9472 32.4543 20.9709 32.0415 19.5419C31.9209 19.1253 31.8732 18.6969 31.8736 18.2633C31.8767 15.0812 31.8789 11.899 31.8802 8.71693C31.8806 8.133 31.7605 8.00613 31.1908 7.91923C29.3829 7.64334 27.5755 7.36527 25.7693 7.08026C25.0685 6.96947 24.845 7.14282 24.8455 7.83799C24.8468 11.1309 24.8477 14.4242 24.8512 17.7171C24.8516 18.2594 24.8477 18.8003 24.8994 19.3429C25.2285 22.7923 27.0066 25.2518 30.1122 26.7821C32.2304 27.8257 34.505 28.1029 36.8375 27.9512C38.8974 27.8174 40.8359 27.2609 42.5745 26.129C44.3697 24.9603 45.6043 23.3632 46.242 21.3229C46.5466 20.3483 46.6675 19.3495 46.668 18.3337C46.6693 16.6687 46.6684 15.0034 46.6684 13.3385C46.6702 13.338 46.6715 13.338 46.6732 13.338Z" fill="url(#paint0_linear_84_899)"/>
<path d="M28.1873 6.15221C29.7138 6.18437 31.2613 5.03821 31.3139 3.11087C31.3595 1.43249 29.9334 0.0252147 28.2237 0.0156562C26.5306 0.0060977 25.133 1.37383 25.1225 3.05048C25.1115 4.77492 26.4618 6.14179 28.1873 6.15221Z" fill="url(#paint1_linear_84_899)"/>
<path d="M40.9095 2.7307C41.2058 3.03267 41.2071 3.14302 40.9178 3.43803C40.753 3.60574 40.5852 3.77084 40.4164 3.93464C40.1982 4.14623 40.1868 4.35522 40.409 4.57332C40.8687 5.02431 41.3254 5.4779 41.783 5.93106C41.992 6.13788 42.1963 6.12397 42.3992 5.92194C42.5837 5.73859 42.77 5.55741 42.954 5.37363C43.0439 5.28369 43.1429 5.21418 43.2757 5.20592C43.4063 5.2233 43.5041 5.29586 43.5935 5.38493C43.7683 5.56002 43.9476 5.73121 44.1203 5.90891C44.3333 6.12832 44.5428 6.13918 44.7637 5.91977C45.212 5.47486 45.6621 5.0317 46.114 4.5907C46.3463 4.3639 46.345 4.1471 46.1078 3.92421C45.9273 3.75477 45.7502 3.58098 45.5793 3.40197C45.3312 3.14172 45.3553 2.91449 45.6284 2.69073C45.8089 2.54301 45.9772 2.37921 46.1447 2.21672C46.3388 2.02772 46.3428 1.82873 46.1495 1.63582C45.6845 1.17267 45.2177 0.711254 44.7505 0.250274C44.5437 0.0460696 44.3368 0.0564971 44.1321 0.255922C43.9459 0.437534 43.7539 0.613063 43.5746 0.800757C43.3537 1.0319 43.1499 1.00931 42.9383 0.791633C42.7573 0.605242 42.571 0.42363 42.3838 0.242888C42.1893 0.0543247 41.9863 0.0534557 41.7939 0.241584C41.325 0.700827 40.86 1.16398 40.3941 1.62626C40.1859 1.83307 40.2004 2.03467 40.4081 2.23497C40.5773 2.39746 40.7447 2.56256 40.9095 2.7307Z" fill="url(#paint2_linear_84_899)"/>
</g>
<defs>
<linearGradient id="paint0_linear_84_899" x1="17.6737" y1="23.7199" x2="25.0229" y2="-15.2807" gradientUnits="userSpaceOnUse">
<stop stop-color="#FF5E69"/>
<stop offset="1" stop-color="#CE2039"/>
</linearGradient>
<linearGradient id="paint1_linear_84_899" x1="-124.517" y1="79.7791" x2="-100.144" y2="-53.7049" gradientUnits="userSpaceOnUse">
<stop stop-color="#FF5E69"/>
<stop offset="1" stop-color="#CE2039"/>
</linearGradient>
<linearGradient id="paint2_linear_84_899" x1="28.0449" y1="24.5255" x2="42.2345" y2="4.19605" gradientUnits="userSpaceOnUse">
<stop stop-color="#FF5E69"/>
<stop offset="1" stop-color="#CE2039"/>
</linearGradient>
</defs>
</svg>
