<svg width="21" height="21" viewBox="0 0 21 21" fill="none" xmlns="http://www.w3.org/2000/svg">
<path d="M10.5459 17.6993C10.5459 17.6993 2.47229 13.1781 2.47229 7.68804C2.47229 6.7175 2.80855 5.77693 3.42386 5.02637C4.03918 4.27581 4.89553 3.76162 5.84722 3.57128C6.79892 3.38094 7.78716 3.52621 8.64382 3.98238C9.50048 4.43855 10.1726 5.17743 10.5459 6.07331V6.07331C10.9192 5.17743 11.5914 4.43855 12.448 3.98238C13.3047 3.52621 14.2929 3.38094 15.2446 3.57128C16.1963 3.76162 17.0527 4.27581 17.668 5.02637C18.2833 5.77693 18.6195 6.7175 18.6195 7.68804C18.6195 13.1781 10.5459 17.6993 10.5459 17.6993Z" stroke="#797596" stroke-width="1.29178" stroke-linecap="round" stroke-linejoin="round"/>
</svg>
