<svg width="22" height="21" viewBox="0 0 22 21" fill="none" xmlns="http://www.w3.org/2000/svg">
<path d="M17.7178 3.15944L2.66852 7.39809C2.54041 7.43311 2.42621 7.50678 2.34148 7.60905C2.25675 7.71132 2.20561 7.83722 2.19502 7.9696C2.18443 8.10199 2.21491 8.23442 2.2823 8.34886C2.34969 8.4633 2.45072 8.55418 2.57163 8.60913L9.48265 11.8789C9.61803 11.9416 9.72676 12.0504 9.78945 12.1857L13.0593 19.0968C13.1142 19.2177 13.2051 19.3187 13.3195 19.3861C13.434 19.4535 13.5664 19.484 13.6988 19.4734C13.8312 19.4628 13.9571 19.4116 14.0594 19.3269C14.1616 19.2422 14.2353 19.128 14.2703 18.9999L18.509 3.95065C18.5411 3.84083 18.5431 3.72439 18.5147 3.61354C18.4864 3.50269 18.4287 3.40151 18.3478 3.3206C18.2669 3.23969 18.1657 3.18204 18.0549 3.15368C17.944 3.12533 17.8276 3.12732 17.7178 3.15944V3.15944Z" stroke="#797596" stroke-width="1.29178" stroke-linecap="round" stroke-linejoin="round"/>
<path d="M9.6922 11.975L13.3415 8.32568" stroke="#797596" stroke-width="1.29178" stroke-linecap="round" stroke-linejoin="round"/>
</svg>
